<?xml version="1.0" encoding="UTF-8"?>
<!DOCTYPE svg PUBLIC "-//W3C//DTD SVG 1.1//EN" "http://www.w3.org/Graphics/SVG/1.1/DTD/svg11.dtd">
<!-- Creator: CorelDRAW X6 -->
<svg xmlns="http://www.w3.org/2000/svg" xml:space="preserve" width="6in" height="1.62341in" version="1.1" style="shape-rendering:geometricPrecision; text-rendering:geometricPrecision; image-rendering:optimizeQuality; fill-rule:evenodd; clip-rule:evenodd"
viewBox="0 0 701 190"
 xmlns:xlink="http://www.w3.org/1999/xlink">
 <defs>
  <style type="text/css">
   <![CDATA[
    .fil1 {fill:#C3062F}
    .fil0 {fill:#FBFFFF}
    .fil2 {fill:#FBFFFF;fill-rule:nonzero}
   ]]>
  </style>
 </defs>
 <g id="Layer_x0020_1">
  <metadata id="CorelCorpID_0Corel-Layer"/>
  <g id="_1308859840">
   <path class="fil0" d="M434 105l0 0 -120 -11c1,3 2,7 2,11l-46 -4 -103 -8c1,2 3,6 2,11l-169 -7 270 35c-2,-3 -2,-7 -3,-11l0 0 132 13c-1,-4 -2,-8 -2,-12l128 11c-1,-4 -2,-8 -2,-12l0 0 178 8 -270 -36c2,4 3,8 3,12zm27 6l-120 -11 2 11 -73 -6 -76 -7 2 11 -152 -8 200 25 -3 -12 132 13 -2 -11 128 11 -2 -11 160 9 -199 -25 3 11z"/>
   <polygon class="fil1" points="344,103 346,113 270,107 196,101 199,111 111,107 241,123 239,112 370,125 368,113 497,125 494,113 590,119 461,102 464,114 "/>
   <path class="fil0" d="M639 68l0 -8c0,-1 1,-3 1,-4l12 -42c1,-4 2,-7 2,-8 0,-2 0,-3 0,-5l17 0 -6 20c2,-2 3,-3 5,-3l12 0c2,0 4,1 5,1 1,1 1,2 2,3 1,3 0,7 -1,11l-6 23c-1,3 -2,6 -2,7 0,2 0,3 0,5l-18 0c1,-2 2,-3 2,-5 1,-1 2,-4 3,-7l6 -22c1,-4 0,-6 -2,-6l-4 0c-2,0 -2,0 -3,1 -1,1 -2,2 -2,4l-6 23c-1,3 -2,6 -2,7 0,2 0,3 0,5l-15 0zm0 -37c0,0 1,1 1,1l2 -12 -3 0 0 11zm0 -11l0 11c0,-1 -1,-1 -1,-1 -1,0 -2,-1 -5,-1l-13 0c-1,0 -2,1 -2,1 0,0 -1,1 -1,2 0,1 0,1 0,2 0,0 1,0 2,0l12 0c7,-1 8,4 6,14l-2 7c-2,5 -4,9 -7,12 -1,1 -2,1 -4,2 -1,0 -3,1 -5,1l-23 0 0 -12c1,1 1,1 2,2 1,0 2,0 4,0l14 0c1,0 2,0 2,0 1,-1 1,-2 1,-3 1,-1 1,-1 1,-2 -1,0 -1,0 -2,0l-14 0c-2,0 -3,0 -4,-1 0,0 -1,-1 -1,-3 -1,-2 -1,-5 0,-9l2 -8c2,-4 3,-7 5,-9 2,-2 3,-3 5,-4 2,-1 4,-1 7,-1l21 0zm0 40c0,1 -1,3 -1,3 -1,2 -1,3 -2,5l3 0 0 -8zm-43 -30l3 -12 -3 0 0 12zm0 -16l0 -13 8 0 -4 13 -4 0zm0 -13l0 13 -11 0 3 -13 8 0zm0 17l0 12 -7 26c-1,3 -2,6 -2,7 -1,2 -1,3 -1,5l-15 0 0 -4c0,0 0,0 0,-1 0,-1 1,-4 2,-7l7 -25c1,-4 2,-6 2,-8 0,-1 0,-3 0,-5l14 0zm0 40c-1,0 -1,-1 -2,-1l-2 13 4 0 0 -12zm-25 -21l0 -2c1,-2 1,-5 1,-7 1,-1 0,-3 0,-5 0,-1 -1,-2 -1,-2l0 16zm-39 -35l-4 12 -5 0 0 -12 9 0zm39 19l0 16 -6 19c-1,4 -1,6 -2,8 0,1 0,3 0,4l-18 0c1,-1 2,-3 2,-4 1,-2 2,-4 3,-8l6 -22c1,-2 1,-4 1,-4 -1,-1 -1,-2 -3,-2l-4 0c-1,0 -2,1 -3,1 0,1 -1,2 -1,4l-7 23c-1,4 -1,6 -2,8 0,1 0,3 0,4l-14 0 0 -9c0,-1 1,-2 1,-3l7 -25c1,-3 1,-6 2,-7 0,-2 0,-4 0,-5l15 0 -1 5c1,-2 2,-3 3,-4 1,-1 3,-1 4,-1l12 0c1,0 3,0 4,1 0,0 0,0 1,1zm0 43c-1,1 -2,3 -3,4l3 0 0 -4zm-48 -31l4 -14 -4 0 0 14zm0 -19l-10 0 3 -12 7 0 0 12zm0 5l0 14 -6 23c-1,4 -2,6 -2,8 -1,1 -1,3 0,4l-14 0 0 -9c0,-1 0,-2 0,-3l7 -25c1,-3 2,-6 2,-7 0,-2 0,-4 0,-5l13 0zm0 40c-1,2 -1,4 -2,5 0,1 -1,3 -2,4l4 0 0 -9zm-22 -43l0 -16 4 0 -4 17c0,0 0,-1 0,-1zm0 -16l0 16c-1,0 -2,-1 -2,-1 -1,0 -3,0 -7,0l-12 0 -4 14 15 0c2,0 4,-1 7,-2l-6 19c-1,-1 -2,-2 -3,-2 0,0 -2,0 -4,0l-13 0 -9 32c-2,5 -3,10 -2,13l-22 0c3,-3 4,-8 6,-13l18 -63c1,-6 2,-10 2,-13l36 0zm0 59c-1,2 -2,4 -2,5 -1,1 -1,3 -2,4l4 0 0 -9zm-88 9l0 -8 5 0c3,0 5,-1 7,-2l-4 10 -8 0zm0 -16l0 -8 3 0 1 -4c1,-2 1,-3 1,-4 0,0 -1,-1 -2,-1l-3 0 0 -7 11 0c3,0 4,0 5,0 1,1 2,2 2,3 1,1 1,2 1,4 0,2 -1,4 -2,6l-3 11 -14 0zm0 -24l0 7 -1 0c-1,0 -1,0 -2,0 0,1 0,1 0,1 -1,1 -1,2 -2,4l-1 4 6 0 0 8 -8 0 -1 3c-1,2 -1,3 -1,4 0,1 1,1 3,1l7 0 0 8 -16 0c-2,0 -4,-1 -5,-1 0,0 -1,0 -1,-1l0 -13 3 -12c3,-9 7,-13 14,-13l5 0zm-22 14l0 -2c2,-4 2,-7 1,-9 0,-1 -1,-1 -1,-2l0 13zm0 -13l0 13 -5 16c-1,3 -2,5 -2,6 0,1 0,2 0,4l-16 0c1,-2 2,-3 2,-4 1,-1 1,-3 2,-6l6 -18c1,-3 0,-5 -2,-5l-3 0c-1,0 -2,1 -3,1 -1,1 -1,2 -2,4l-5 18c-1,3 -2,5 -2,6 0,1 0,2 0,4l-8 0 0 -21 7 -23c1,-3 2,-5 2,-7 0,-1 0,-2 0,-3l14 0 -5 16c2,-1 3,-2 5,-2l10 0c2,0 3,0 4,1 0,0 1,0 1,0zm0 24l-1 1c-1,5 -1,9 0,11 0,0 0,1 1,1l0 -13zm-38 -30l1 0c1,0 2,0 3,0 0,1 1,1 1,2l2 -11 -7 0 0 9zm0 -9l0 9 -6 0 -11 37c-1,3 -2,6 -1,8l-18 0c2,-2 3,-5 5,-8l11 -37 -7 0c-1,0 -2,0 -3,0 0,1 -1,1 -2,2l4 -11 28 0zm0 33l-4 11c-1,3 -1,5 -2,6 0,1 -1,2 -2,4l8 0 0 -21zm-69 21l0 -8c0,0 1,0 1,-1 1,-1 1,-2 2,-4l4 -14c0,-2 0,-3 0,-4 0,-1 -1,-1 -3,-1l-3 0c-1,0 -1,0 -1,0l0 -8 13 0c3,0 5,0 5,1 1,0 2,1 3,2 0,1 1,2 1,4 0,1 -1,3 -1,6l-4 15c-2,8 -7,12 -13,12l-4 0zm0 -40l0 8c-2,0 -3,2 -4,4l-4 16c0,0 0,0 0,1l0 -29c1,0 2,0 3,0l5 0zm0 32l0 8 -8 0 0 -9c0,0 0,0 0,0 0,1 1,1 2,1l4 0c1,0 1,0 2,0zm-8 -45l0 -1 0 0 0 1zm0 -1l0 1 -2 10c0,-1 -1,-1 -2,-1 0,-1 -1,-1 -3,-1l-8 0 -10 37c-1,3 -1,6 -1,8l-20 0c2,-2 3,-5 4,-8l11 -37 -7 0c-2,0 -3,0 -4,1 0,0 -1,0 -2,1l4 -11 40 0zm0 14c0,0 -1,1 -1,1 -1,0 -2,0 -3,1 -2,2 -4,5 -5,9l-5 17c-1,4 -1,7 0,9 1,1 1,2 2,2 1,0 3,1 6,1l6 0 0 -9c0,0 0,-1 0,-2l0 -29zm-95 38l0 -10c1,-2 1,-4 2,-6l5 -21 -5 0 2 -9 6 0 2 -10 17 -2 -3 12 14 0 -2 9 -14 0 -6 23c-1,3 -1,4 -1,5 0,1 0,1 0,2 0,1 2,1 3,1l5 0c3,0 5,-1 7,-2l-4 12 -18 0c-3,0 -5,0 -7,-1 -1,-1 -2,-2 -3,-3zm0 -40l1 -6 -1 0 0 6zm0 -6l0 6 0 7c-1,-2 -2,-3 -3,-3 -1,0 -3,-1 -5,-1l-14 0c-1,0 -2,1 -2,1 -1,0 -1,1 -2,2 0,1 0,1 1,2 0,0 1,0 2,0l13 0c7,0 9,4 6,14l-2 8c-1,5 -3,9 -6,12 -2,1 -3,2 -4,2 -2,1 -4,1 -6,1l-24 0 0 -11c0,0 1,0 1,1 1,0 2,0 5,0l14 0c1,0 2,0 3,0 0,-1 1,-2 1,-3 0,-1 0,-2 0,-2 0,0 -1,0 -2,0l-15 0c-2,0 -3,-1 -4,-1 0,-1 -1,-2 -1,-3 -1,-2 -1,-5 0,-10l2 -8c1,-4 3,-7 5,-9 1,-2 3,-4 5,-4 2,-1 4,-1 7,-1l25 0zm0 36c0,2 0,3 0,4 -1,2 0,4 0,6 0,0 0,0 0,0l0 -10zm-46 -20c0,0 0,0 0,0l4 -16 -4 0 0 16zm0 -16l0 16c-1,-1 -1,-2 -2,-2 -1,0 -2,-1 -4,-1l-3 0c-2,0 -3,1 -5,2 -1,2 -2,4 -2,6l-4 16c-1,4 -2,7 -2,8 0,2 0,3 0,5l-15 0 0 -9c0,-1 1,-2 1,-4l6 -25c1,-4 2,-6 2,-8 0,-1 0,-3 0,-4l15 0 -1 8c1,-2 2,-4 2,-5 1,-1 2,-1 3,-2 1,-1 3,-1 5,-1l4 0zm0 40c-1,-1 -2,-1 -3,-2l-2 13 5 0 0 -11zm-37 -27l3 -13 -3 0 0 13zm0 -18l0 -13 8 0 -3 13 -5 0zm0 -13l0 13 -12 0 3 -13 9 0zm0 18l0 13 -6 24c-1,4 -2,7 -2,8 0,2 0,3 0,5l-15 0 0 -10c0,-1 0,-2 0,-3l7 -25c1,-4 1,-6 2,-8 0,-1 0,-3 0,-4l14 0zm0 41c0,2 -1,3 -1,4 0,2 -1,3 -2,5l3 0 0 -9zm-23 -44l0 -16 3 0 -3 16c0,0 0,0 0,0zm0 -16l0 16c-1,0 -2,-1 -3,-1 -1,0 -3,0 -6,-1l-13 0 -4 15 15 0c2,0 5,-1 7,-3l-5 19c0,-1 -1,-2 -2,-2 -1,-1 -2,-1 -4,-1l-14 0 -10 33c-1,6 -2,10 -1,13l-24 0c3,-3 5,-7 6,-13l19 -62c2,-6 2,-10 2,-13l37 0zm0 59c-1,2 -2,4 -2,5 -1,2 -1,3 -2,5l4 0 0 -10z"/>
   <g>
    <path class="fil2" d="M692 53l0 0 0 0c-1,0 -2,1 -2,1 -1,0 -1,0 -1,0 0,0 0,0 -1,0 0,1 -1,1 -1,2l0 0c-1,0 -1,0 -1,0 0,0 0,1 0,1 -1,1 -2,2 -2,4l0 0 0 0c0,0 1,1 1,2 0,0 0,0 0,0 0,0 0,1 0,1 1,1 1,1 2,2l0 0c0,0 0,0 0,0 0,0 1,1 1,1 1,0 2,1 4,1l0 0 0 0c0,0 1,0 1,0 1,0 1,0 1,-1 0,0 0,0 1,0 0,0 1,-1 2,-1l0 0c0,0 0,-1 0,-1 0,0 0,0 1,0 0,-2 1,-3 1,-4l0 0 0 0c0,-1 0,-2 -1,-2 0,0 0,-1 0,-1 0,0 0,0 0,-1 0,0 -1,-1 -1,-1l0 0c-1,-1 -1,-1 -1,-1 0,0 0,0 -1,0 -1,-1 -2,-2 -3,-2zm0 -1l0 0 0 0c0,0 1,1 2,1 0,0 0,0 0,0 1,0 2,1 3,2 1,1 2,2 2,3 0,0 0,0 0,0 0,0 0,1 0,1 1,0 1,1 1,2l0 0 0 0 0 0c0,0 -1,1 -1,2 0,0 0,0 0,1 0,1 -1,2 -2,2 -1,1 -1,2 -2,2 -1,0 -1,0 -1,0 0,1 0,1 -1,1 0,0 -1,0 -1,0l0 0 0 0 0 0c-1,0 -2,0 -3,0 0,0 0,-1 0,-1 -1,0 -2,-1 -3,-2 -1,0 -1,-1 -2,-2 0,0 0,-1 0,-1 0,0 0,0 0,0 0,-1 0,-2 0,-2l0 0 0 0 0 0c0,-1 0,-2 0,-2 0,-1 0,-1 0,-1 0,-1 1,-2 2,-3 1,-1 1,-1 2,-2 1,0 1,0 1,0 0,0 1,0 1,0 0,0 1,-1 2,-1l0 0z"/>
    <path class="fil0" d="M688 65l0 -10 5 0c1,0 2,1 2,1 1,1 1,1 1,2 0,1 0,1 -1,2 0,0 0,0 -1,1 1,0 1,0 1,0 0,1 0,1 0,2 0,1 0,1 1,2 0,0 0,0 0,0l0 0 -2 0c0,0 -1,-1 -1,-2 0,0 0,-1 0,-1 0,0 0,-1 -1,-1l-2 0 0 4 -2 0zm2 -5l2 0c1,0 2,-1 2,-2 0,-1 -1,-1 -2,-1l-2 0 0 3z"/>
   </g>
   <g>
    <polygon class="fil2" points="539,156 539,132 552,132 552,136 544,136 544,142 552,142 552,146 544,146 544,156 "/>
    <polygon class="fil2" points="567,132 567,136 563,136 563,156 558,156 558,136 554,136 554,132 "/>
    <polygon class="fil2" points="582,132 582,136 578,136 578,156 574,156 574,136 569,136 569,132 "/>
    <polygon class="fil2" points="585,156 585,132 597,132 597,136 589,136 589,142 597,142 597,146 589,146 589,156 "/>
    <polygon class="fil2" points="601,156 597,156 597,152 601,152 "/>
    <path class="fil2" d="M628 139l-6 0c0,-1 -1,-1 -2,-2 -1,0 -2,-1 -3,-1 -1,0 -2,1 -3,1 0,0 -1,1 -2,2 0,0 -1,1 -1,2 -1,1 -1,2 -1,3 0,2 1,4 2,6 1,1 3,2 5,2 1,0 2,0 3,-1 1,0 2,-1 2,-2l6 0c-1,3 -3,5 -4,6 -2,1 -4,2 -7,2 -2,0 -3,-1 -5,-1 -1,-1 -2,-2 -4,-4 -1,-1 -1,-2 -2,-3 0,-2 -1,-3 -1,-5 0,-2 1,-3 1,-5 1,-1 2,-3 3,-4 1,-1 2,-2 4,-2 1,-1 3,-1 4,-1 3,0 5,0 7,2 1,1 3,3 4,5z"/>
    <path class="fil2" d="M635 144c0,1 1,2 1,3 0,1 1,1 1,2 1,1 2,2 3,2 1,1 2,1 3,1 2,0 3,-1 5,-3 1,-1 2,-3 2,-5 0,-2 -1,-4 -2,-5 -2,-2 -3,-2 -5,-2 -2,0 -4,0 -6,2 -1,1 -2,3 -2,5zm-4 0c0,-1 0,-2 0,-4 0,-1 1,-2 2,-3 1,-2 2,-3 4,-4 2,-1 4,-1 6,-1 1,0 3,0 4,1 1,0 3,1 4,2 1,1 2,3 2,4 1,2 1,3 1,5 0,2 0,3 -1,5 0,1 -1,3 -2,4 -1,1 -2,2 -4,3 -1,0 -3,1 -4,1 -2,0 -4,-1 -5,-1 -2,-1 -3,-2 -4,-3 -1,-1 -2,-3 -3,-4 0,-2 0,-3 0,-5z"/>
    <polygon class="fil2" points="663,156 658,156 658,132 664,132 670,150 676,132 682,132 682,156 677,156 677,139 672,156 668,156 662,139 "/>
   </g>
   <path class="fil2" d="M152 168l12 -3 3 0 0 21c0,2 1,3 1,4l-13 0c1,-1 2,-2 2,-4l0 -14 -5 0 0 -4z"/>
   <polygon id="1" class="fil2" points="192,178 192,182 178,182 178,178 "/>
   <path id="2" class="fil2" d="M216 177c1,0 3,0 3,0 1,0 2,0 2,1 1,0 2,2 2,3l0 3c0,2 -1,3 -2,4 0,1 -1,1 -2,1 -1,1 -2,1 -3,1l-14 0c-2,0 -3,0 -4,-1 0,0 -1,0 -2,-1 -1,-1 -1,-2 -1,-4l0 -3c0,0 0,-1 0,-2 0,-1 1,-1 1,-1 1,-1 1,-1 2,-1 1,0 2,0 4,0 -2,0 -4,0 -4,-1 -1,0 -2,0 -2,0 -1,-1 -1,-1 -1,-2 0,0 0,-1 0,-2l0 -3c0,-1 0,-1 0,-2 0,0 1,-1 1,-1 1,-1 1,-1 2,-1 1,0 2,0 4,0l13 0c2,0 3,0 4,0 1,0 2,0 2,1 1,0 2,2 2,3l0 3c0,1 0,2 0,2 -1,1 -1,1 -1,2 -1,0 -2,0 -2,0 -1,1 -2,1 -4,1zm-6 -8l-3 0c-1,0 -1,0 -2,0 0,0 0,1 0,1l0 3c0,0 0,1 0,1 1,0 1,1 2,1l3 0c1,0 1,0 2,-1 0,0 0,0 0,0 0,0 1,0 1,0 0,0 0,-1 0,-1l0 -3c0,0 0,-1 -1,-1 0,0 -1,0 -2,0zm0 10l-3 0c0,0 -1,0 -1,0 0,0 -1,0 -1,0 0,0 0,1 0,2l0 2c0,1 0,1 0,1 0,1 0,1 0,1 0,0 1,0 2,0l4 0c0,0 1,0 1,0 1,0 1,-1 1,-2l0 -2c0,-1 -1,-2 -1,-2 0,0 -1,0 -2,0z"/>
   <path id="3" class="fil2" d="M234 165l16 0c2,0 4,0 5,1 0,1 1,2 1,2 1,1 1,2 1,4l0 11c0,1 0,2 -1,3 0,1 -1,1 -1,2 -1,1 -3,2 -5,2l-16 0c-2,0 -4,-1 -5,-2 -1,-1 -1,-1 -1,-2 -1,-1 -1,-2 -1,-3l0 -11c0,-2 0,-3 1,-4 0,0 0,-1 1,-2 1,-1 3,-1 5,-1zm3 6l0 12c0,1 1,2 1,2 0,0 1,0 2,0l4 0c1,0 1,0 2,0 0,0 0,-1 0,-2l0 -12c0,-1 0,-1 0,-2 -1,0 -1,0 -2,0l-4 0c-1,0 -2,0 -2,0 0,1 -1,1 -1,2z"/>
   <path id="4" class="fil2" d="M267 165l16 0c2,0 4,0 5,1 1,1 1,2 1,2 1,1 1,2 1,4l0 11c0,1 0,2 -1,3 0,1 0,1 -1,2 -1,1 -3,2 -5,2l-16 0c-2,0 -4,-1 -5,-2 -1,-1 -1,-1 -1,-2 -1,-1 -1,-2 -1,-3l0 -11c0,-2 0,-3 1,-4 0,0 0,-1 1,-2 1,-1 3,-1 5,-1zm4 6l0 12c0,1 0,2 0,2 0,0 1,0 2,0l4 0c1,0 2,0 2,0 0,0 1,-1 1,-2l0 -12c0,-1 -1,-1 -1,-2 0,0 -1,0 -2,0l-4 0c-1,0 -2,0 -2,0 0,1 0,1 0,2z"/>
   <polygon id="5" class="fil2" points="306,178 306,182 292,182 292,178 "/>
   <path id="6" class="fil2" d="M310 165l26 0 1 4c-4,3 -7,6 -9,10 -2,4 -4,8 -4,11l-12 0c1,-3 3,-6 5,-10 3,-4 6,-8 9,-11l-12 0c-1,0 -2,0 -3,0 -1,0 -2,0 -2,1l1 -5z"/>
   <path id="7" class="fil2" d="M364 178l5 0 0 6 -5 0 0 2c0,2 0,3 1,4l-13 0c1,-1 1,-2 1,-4l0 -2 -17 0 0 -6 16 -13 12 0 0 13zm-11 0l0 -9 -10 9 10 0z"/>
   <path id="8" class="fil2" d="M370 165l27 0 0 4c-3,3 -6,6 -8,10 -3,4 -4,8 -5,11l-11 0c0,-3 2,-6 5,-10 2,-4 5,-8 9,-11l-12 0c-2,0 -3,0 -4,0 0,0 -1,0 -2,1l1 -5z"/>
   <polygon id="9" class="fil2" points="414,178 414,182 400,182 400,178 "/>
   <path id="10" class="fil2" d="M418 190l-1 -5c1,0 1,0 2,0 1,0 2,0 4,0l8 0c2,0 3,0 3,0 1,0 1,-1 1,-2l0 -4c-1,2 -2,2 -4,2l-8 0c-1,0 -2,0 -3,0 -1,0 -1,-1 -2,-1 0,-1 -1,-1 -1,-2 0,-1 0,-2 0,-3l0 -5c0,-1 0,-2 0,-2 0,-1 1,-2 1,-2 1,-1 3,-1 5,-1l14 0 1 0c3,0 5,0 6,2 1,1 1,2 1,4l0 12 0 2c0,1 -1,3 -2,4 -1,0 -3,1 -5,1l-20 0zm11 -13l3 0c1,0 2,0 2,0 1,-1 1,-1 1,-3l0 -3c0,-1 0,-2 -1,-2 0,0 -1,0 -2,0l-3 0c-1,0 -1,0 -2,0 0,0 0,1 0,2l0 3c0,2 0,2 0,2 1,1 1,1 2,1z"/>
   <path id="11" class="fil2" d="M456 165l16 0c2,0 4,0 5,1 1,1 1,2 1,2 1,1 1,2 1,4l0 11c0,1 0,2 -1,3 0,1 0,1 -1,2 -1,1 -3,2 -5,2l-16 0c-2,0 -4,-1 -5,-2 -1,-1 -1,-1 -1,-2 -1,-1 -1,-2 -1,-3l0 -11c0,-2 0,-3 1,-4 0,0 0,-1 1,-2 1,-1 3,-1 5,-1zm3 6l0 12c0,1 1,2 1,2 0,0 1,0 2,0l4 0c1,0 2,0 2,0 0,0 1,-1 1,-2l0 -12c0,-1 -1,-1 -1,-2 0,0 -1,0 -2,0l-4 0c-1,0 -2,0 -2,0 0,1 -1,1 -1,2z"/>
   <path id="12" class="fil2" d="M485 168l12 -3 3 0 0 21c0,2 1,3 2,4l-13 0c1,-1 1,-2 1,-4l0 -14 -5 0 0 -4z"/>
   <path id="13" class="fil2" d="M514 179l0 -4c1,0 2,0 4,0l6 0c1,0 1,0 1,0 1,-1 1,-1 1,-2l0 -2c0,-1 0,-2 -1,-2 0,0 0,0 -1,0l-10 0c-2,0 -4,0 -5,1l1 -5 19 0c2,0 3,0 4,0 0,0 1,0 1,1 2,1 2,2 2,4l0 3c0,1 0,1 0,2 0,0 -1,1 -1,1 -1,0 -1,0 -1,0 -1,0 -2,1 -4,1 0,0 1,0 1,0 1,0 2,0 2,0 1,0 1,0 2,1 1,0 1,1 1,3l0 3c0,2 0,3 -1,4 -1,1 -1,1 -2,1 -1,1 -2,1 -4,1l-19 0 -1 -6c1,1 2,1 3,1 1,0 2,0 3,0l8 0c1,0 2,0 2,0 0,0 1,0 1,0 0,-1 0,-1 0,-2l0 -2c0,-1 0,-1 0,-2 -1,0 -1,0 -2,0l-6 0c-2,0 -3,0 -4,0z"/>
  </g>
 </g>
</svg>
