<?xml version="1.0" encoding="UTF-8"?>
<!DOCTYPE svg PUBLIC "-//W3C//DTD SVG 1.1//EN" "http://www.w3.org/Graphics/SVG/1.1/DTD/svg11.dtd">
<!-- Creator: CorelDRAW X6 -->
<svg xmlns="http://www.w3.org/2000/svg" xml:space="preserve" width="6in" height="1.62341in" version="1.1" style="shape-rendering:geometricPrecision; text-rendering:geometricPrecision; image-rendering:optimizeQuality; fill-rule:evenodd; clip-rule:evenodd"
viewBox="0 0 396 107"
 xmlns:xlink="http://www.w3.org/1999/xlink">
 <defs>
  <style type="text/css">
   <![CDATA[
    .fil0 {fill:#1E1D1B}
    .fil1 {fill:#C3062F}
    .fil2 {fill:#1E1D1B;fill-rule:nonzero}
   ]]>
  </style>
 </defs>
 <g id="Layer_x0020_1">
  <metadata id="CorelCorpID_0Corel-Layer"/>
  <path class="fil0" d="M245 59l0 0 -68 -6c1,2 2,4 2,6l-27 -2 -58 -5c1,2 2,4 2,7l-96 -4 152 20c-1,-2 -1,-5 -1,-7l0 0 74 7c0,-2 -1,-4 -1,-6l73 6c-1,-2 -2,-4 -2,-7l0 0 101 5 -153 -20c1,2 2,4 2,6zm15 4l-67 -6 1 6 -42 -4 -43 -4 2 7 -86 -5 113 14 -2 -7 75 8 -2 -7 73 7 -1 -7 90 5 -112 -14 1 7z"/>
  <polygon class="fil1" points="194,58 195,64 152,61 111,57 112,63 63,60 136,69 135,63 209,70 208,64 280,70 279,64 333,67 260,58 262,64 "/>
  <path class="fil0" d="M361 38l0 -4c0,-1 0,-2 1,-3l6 -23c1,-2 1,-4 1,-5 0,-1 0,-1 0,-2l10 0 -3 11c0,-1 1,-2 2,-2l7 0c1,0 2,1 3,1 0,0 1,1 1,2 0,1 0,3 0,6l-4 12c0,2 -1,4 -1,5 0,1 0,1 0,2l-10 0c0,-1 1,-1 1,-2 0,-1 1,-3 1,-5l4 -12c1,-2 0,-3 -1,-3l-3 0c0,0 -1,0 -1,0 -1,1 -1,2 -1,3l-4 12c0,2 -1,4 -1,5 0,1 0,1 0,2l-8 0zm0 -21c0,1 0,1 1,1l1 -7 -2 0 0 6zm0 -6l0 6c0,0 -1,0 -1,0 0,0 -1,0 -2,0l-8 0c0,0 -1,0 -1,0 0,0 -1,0 -1,1 0,0 0,1 0,1 0,0 1,0 2,0l6 0c4,0 5,3 3,8l-1 4c0,3 -2,5 -3,7 -1,0 -2,1 -3,1 0,0 -1,0 -2,0l-14 0 0 -6c1,0 1,1 2,1 0,0 1,0 2,0l8 0c0,0 1,0 1,0 0,-1 1,-1 1,-2 0,0 0,-1 0,-1 0,0 -1,0 -1,0l-8 0c-1,0 -2,0 -2,0 0,-1 -1,-1 -1,-2 0,-1 0,-3 0,-5l2 -5c0,-2 1,-4 2,-5 1,-1 2,-2 3,-2 1,0 2,-1 4,-1l12 0zm0 23c0,1 -1,1 -1,2 0,1 -1,1 -1,2l2 0 0 -4zm-25 -17l2 -7 -2 0 0 7zm0 -9l0 -7 5 0 -2 7 -3 0zm0 -7l0 7 -6 0 2 -7 4 0zm0 9l0 7 -4 14c0,2 -1,4 -1,5 0,1 0,1 0,2l-9 0 0 -2c0,0 0,0 0,0 1,-1 1,-3 2,-5l3 -14c1,-2 1,-3 2,-4 0,-1 0,-2 0,-3l7 0zm0 23c0,0 0,-1 0,-1l-2 7 2 0 0 -6zm-14 -12l0 -1c1,-2 1,-3 1,-4 0,-1 0,-2 0,-3 0,0 -1,-1 -1,-1l0 9zm-22 -20l-2 7 -3 0 0 -7 5 0zm22 11l0 9 -3 11c0,2 -1,3 -1,4 0,1 0,2 0,3l-10 0c0,-1 1,-2 1,-3 0,-1 1,-2 1,-4l4 -13c0,-1 0,-2 0,-2 0,-1 0,-1 -1,-1l-3 0c0,0 -1,0 -1,1 0,0 -1,1 -1,2l-4 13c0,2 0,3 -1,4 0,1 0,2 0,3l-8 0 0 -6c0,0 1,-1 1,-1l4 -14c0,-2 1,-4 1,-5 0,-1 0,-1 0,-2l8 0 0 3c1,-2 1,-2 2,-3 0,0 1,0 2,0l6 0c1,0 2,0 3,0 0,0 0,0 0,1zm0 24c0,1 -1,2 -1,2l1 0 0 -2zm-27 -17l3 -8 -3 0 0 8zm0 -11l-5 0 2 -7 3 0 0 7zm0 3l0 8 -3 13c-1,2 -1,3 -1,4 -1,1 -1,2 0,3l-8 0 0 -6c0,0 0,-1 0,-1l4 -14c0,-2 1,-4 1,-5 0,-1 0,-1 0,-2l7 0zm0 22c0,2 0,3 -1,3 0,1 0,2 -1,3l2 0 0 -6zm-12 -24l0 -9 2 0 -2 9c0,0 0,0 0,0zm0 -9l0 9c-1,0 -1,0 -2,-1 0,0 -1,0 -3,0l-7 0 -2 8 8 0c1,0 3,0 4,-1l-3 11c-1,0 -1,-1 -2,-1 0,0 -1,0 -2,0l-8 0 -5 18c-1,3 -1,5 -1,7l-12 0c1,-2 2,-4 3,-7l10 -36c1,-3 2,-5 1,-7l21 0zm0 33c-1,1 -1,2 -1,3 -1,1 -1,2 -2,3l3 0 0 -6zm-50 5l0 -4 3 0c2,0 3,0 4,-1l-2 5 -5 0zm0 -9l0 -4 2 0 1 -3c0,-1 0,-1 0,-2 0,0 0,0 -1,0l-2 0 0 -4 7 0c1,0 2,0 2,0 1,0 1,1 2,1 0,1 0,2 0,3 0,1 -1,2 -1,3l-2 6 -8 0zm0 -13l0 4 0 0c-1,0 -1,0 -1,0 0,0 -1,0 -1,0 0,1 0,1 -1,3l0 2 3 0 0 4 -5 0 0 2c0,1 -1,2 0,2 0,1 0,1 1,1l4 0 0 4 -9 0c-1,0 -2,0 -3,0 0,0 0,0 0,-1l0 -7 2 -7c1,-5 4,-7 7,-7l3 0zm-12 8l0 -1c1,-3 1,-4 0,-5 0,-1 0,-1 0,-2l0 8zm0 -8l0 8 -3 9c-1,1 -1,2 -1,3 0,1 0,1 0,2l-9 0c0,-1 1,-1 1,-2 0,-1 1,-2 1,-3l3 -10c1,-2 1,-3 -1,-3l-2 0c0,0 -1,0 -1,1 0,0 -1,1 -1,1l-3 11c-1,1 -1,2 -1,3 0,1 0,1 0,2l-5 0 0 -12 4 -13c1,-1 1,-2 1,-3 0,-1 0,-1 0,-2l9 0 -3 9c0,-1 1,-1 2,-1l6 0c1,0 2,0 2,0 0,0 1,0 1,0zm0 14l-1 1c0,2 0,4 0,6 0,0 0,0 1,0l0 -7zm-22 -17l1 0c0,0 1,0 1,0 1,0 1,1 1,1l2 -6 -5 0 0 5zm0 -5l0 5 -3 0 -7 21c0,2 0,3 0,4l-10 0c1,-1 2,-2 3,-4l6 -21 -4 0c0,0 -1,0 -1,0 -1,0 -1,1 -2,1l3 -6 15 0zm0 18l-2 7c0,1 -1,2 -1,3 0,1 -1,1 -1,2l4 0 0 -12zm-39 12l0 -4c0,0 1,0 1,-1 0,0 1,-1 1,-2l2 -8c0,-1 1,-2 0,-2 0,-1 0,-1 -1,-1l-2 0c0,0 -1,0 -1,0l0 -4 8 0c1,0 2,0 3,0 0,1 1,1 1,2 0,0 1,1 1,2 0,1 -1,2 -1,3l-2 9c-1,4 -4,6 -7,6l-3 0zm0 -22l0 4c-1,1 -1,1 -2,3l-2 8c0,1 0,1 0,1l0 -16c0,0 1,0 2,0l2 0zm0 18l0 4 -4 0 0 -5c0,0 0,0 0,0 0,1 0,1 1,1l2 0c1,0 1,0 1,0zm-4 -25l0 -1 0 0 0 1zm0 -1l0 1 -1 5c-1,0 -1,-1 -1,-1 -1,0 -1,0 -2,0l-4 0 -6 21c-1,2 -1,3 -1,4l-11 0c1,-1 2,-2 2,-4l7 -21 -5 0c-1,0 -1,0 -2,0 0,0 -1,1 -1,1l2 -6 23 0zm0 8c0,0 0,0 -1,0 0,0 -1,1 -1,1 -2,1 -3,3 -3,5l-3 10c-1,2 -1,3 0,5 0,0 1,1 1,1 1,0 2,0 3,0l4 0 0 -5c0,0 0,0 0,-1l0 -16zm-54 21l0 -5c1,-1 1,-3 1,-4l3 -11 -3 0 2 -6 3 0 1 -6 10 0 -2 6 8 0 -2 6 -7 0 -4 13c0,1 0,2 0,2 0,1 0,1 0,1 0,1 1,1 2,1l2 0c2,0 3,0 4,-1l-2 6 -10 0c-2,0 -3,0 -4,0 -1,0 -1,-1 -2,-2zm0 -22l1 -4 -1 0 0 4zm0 -4l0 4 0 3c-1,0 -1,-1 -2,-1 0,0 -1,0 -2,0l-8 0c-1,0 -1,0 -2,0 0,0 0,0 0,1 0,0 0,1 0,1 0,0 0,0 1,0l7 0c4,0 5,3 4,8l-1 4c-1,3 -2,6 -4,7 -1,1 -1,1 -2,2 -1,0 -2,0 -3,0l-14 0 0 -6c0,0 1,0 1,0 0,0 1,0 3,0l8 0c0,0 1,0 1,0 0,0 1,0 1,-1 0,-1 0,-1 0,-1 0,-1 -1,-1 -1,-1l-9 0c-1,0 -1,0 -2,0 0,0 -1,-1 -1,-2 0,-1 0,-3 0,-5l2 -5c0,-2 1,-4 2,-5 1,-1 2,-2 3,-2 1,-1 2,-1 4,-1l14 0zm0 21c0,1 0,2 0,2 0,1 0,2 0,3 0,0 0,0 0,0l0 -5zm-26 -12c0,0 0,0 0,0l2 -9 -2 0 0 9zm0 -9l0 9c0,0 -1,-1 -1,-1 0,0 -1,0 -2,0l-2 0c-1,0 -2,0 -2,1 -1,1 -2,2 -2,3l-2 9c-1,2 -1,4 -1,5 0,1 0,2 0,2l-9 0 0 -4c1,-1 1,-2 1,-3l3 -14c1,-2 1,-3 1,-4 0,-1 0,-2 0,-3l9 0 -1 5c1,-1 1,-2 2,-3 0,0 0,-1 1,-1 1,-1 2,-1 3,-1l2 0zm0 23c0,0 -1,-1 -1,-1l-1 7 2 0 0 -6zm-21 -16l2 -7 -2 0 0 7zm0 -10l0 -7 5 0 -2 7 -3 0zm0 -7l0 7 -6 0 2 -7 4 0zm0 10l0 7 -3 14c-1,2 -1,4 -1,5 0,1 0,2 0,2l-9 0 0 -5c0,-1 0,-1 1,-2l3 -14c1,-2 1,-3 1,-4 0,-1 0,-2 0,-3l8 0zm0 24c0,1 0,1 0,2 -1,1 -1,2 -1,2l1 0 0 -4zm-13 -25l0 -10 2 0 -2 10c0,0 0,0 0,0zm0 -10l0 10c0,-1 -1,-1 -1,-1 -1,0 -2,0 -4,0l-7 0 -2 8 8 0c1,0 3,-1 4,-1l-2 10c-1,-1 -1,-1 -2,-1 0,-1 -1,-1 -2,-1l-8 0 -5 19c-1,3 -2,6 -2,7l-13 0c2,-1 3,-4 4,-7l10 -35c1,-3 2,-6 2,-8l20 0zm0 34c0,1 -1,2 -1,3 0,1 -1,2 -1,2l2 0 0 -5z"/>
  <g id="_344643280">
   <path class="fil2" d="M390 30l0 0 0 0c0,0 0,0 -1,0 0,0 0,0 0,0 0,0 0,1 0,1 -1,0 -1,0 -1,0l0 0c0,0 -1,1 -1,1 0,0 0,0 0,0 0,1 -1,1 -1,2l0 0 0 0c0,1 1,1 1,1 0,0 0,1 0,1 0,0 0,0 0,0 0,0 0,1 1,1l0 0c0,0 0,0 0,0 0,1 0,1 0,1 1,0 2,0 2,0l0 0 0 0c1,0 1,0 2,0 0,0 0,0 0,0 0,0 0,0 0,0 1,0 1,-1 1,-1l0 0c0,0 0,0 1,0 0,0 0,0 0,-1 0,0 0,-1 0,-2l0 0 0 0c0,0 0,0 0,-1 0,0 0,0 0,0 0,0 0,0 0,-1 0,0 0,0 -1,-1l0 0c0,0 0,0 0,0 0,0 0,0 0,0 -1,-1 -2,-1 -3,-1zm0 0l0 0 0 0c1,0 1,0 2,0 0,0 0,0 0,0 1,0 1,1 2,1 0,0 0,1 1,1 0,1 0,1 0,1 0,0 0,0 0,0 0,1 0,1 0,1l0 0 0 0 0 0c0,1 0,1 0,1 0,1 0,1 0,1 -1,0 -1,1 -1,2 -1,0 -1,0 -2,1 0,0 0,0 0,0 0,0 0,0 -1,0 0,0 0,0 -1,0l0 0 0 0 0 0c0,0 0,0 -1,0 0,0 0,0 0,0 -1,-1 -1,-1 -2,-1 0,-1 0,-1 -1,-2 0,0 0,0 0,0 0,0 0,-1 0,-1 0,0 0,0 0,-1l0 0 0 0 0 0c0,0 0,-1 0,-1 0,0 0,0 0,0 0,-1 1,-2 1,-2 1,0 1,-1 2,-1 0,0 0,0 0,0 0,0 0,0 0,0 1,0 1,0 1,0l0 0z"/>
   <path class="fil0" d="M388 37l0 -6 3 0c1,0 1,0 2,1 0,0 0,0 0,1 0,0 0,0 0,1 -1,0 -1,0 -1,0 0,0 0,0 1,1 0,0 0,0 0,1 0,0 0,0 0,0 0,1 0,1 0,1l0 0 -1 0c0,0 0,-1 0,-1 0,-1 0,-1 -1,-1 0,0 0,0 0,0l-1 0 0 2 -2 0zm2 -3l1 0c0,0 1,-1 1,-1 0,-1 -1,-1 -1,-1l-1 0 0 2z"/>
  </g>
  <g id="_344643408">
   <polygon class="fil2" points="304,88 304,75 311,75 311,77 307,77 307,80 311,80 311,82 307,82 307,88 "/>
   <polygon class="fil2" points="320,75 320,77 318,77 318,88 315,88 315,77 313,77 313,75 "/>
   <polygon class="fil2" points="329,75 329,77 326,77 326,88 324,88 324,77 321,77 321,75 "/>
   <polygon class="fil2" points="330,88 330,75 337,75 337,77 333,77 333,80 337,80 337,82 333,82 333,88 "/>
   <polygon class="fil2" points="339,88 337,88 337,86 339,86 "/>
   <path class="fil2" d="M355 79l-4 0c0,-1 0,-1 -1,-2 0,0 -1,0 -2,0 0,0 -1,0 -1,0 -1,1 -1,1 -1,1 -1,1 -1,1 -1,2 0,0 -1,1 -1,1 0,2 1,3 2,3 0,1 1,2 2,2 1,0 2,0 2,-1 1,0 1,0 1,-1l4 0c-1,2 -2,3 -3,3 -1,1 -2,1 -4,1 -1,0 -1,0 -2,0 -1,-1 -2,-1 -2,-2 -1,-1 -1,-1 -2,-2 0,-1 0,-2 0,-3 0,-1 0,-2 0,-2 1,-1 1,-2 2,-3 1,0 1,-1 2,-1 1,0 2,-1 2,-1 2,0 3,1 4,1 1,1 2,2 3,4z"/>
   <path class="fil2" d="M359 81c0,1 0,1 0,2 0,0 0,1 1,1 0,1 1,1 1,1 1,1 1,1 2,1 1,0 2,-1 3,-2 0,0 1,-1 1,-3 0,-1 -1,-2 -1,-3 -1,-1 -2,-1 -3,-1 -1,0 -2,0 -3,1 -1,1 -1,2 -1,3zm-3 0c0,0 0,-1 0,-2 1,0 1,-1 1,-2 1,-1 2,-1 3,-2 1,0 2,-1 3,-1 1,0 2,1 2,1 1,0 2,1 2,1 1,1 2,2 2,3 0,0 0,1 0,2 0,1 0,2 0,3 0,1 -1,2 -1,2 -1,1 -2,1 -3,2 0,0 -1,0 -2,0 -1,0 -2,0 -3,0 -1,0 -1,-1 -2,-2 -1,0 -1,-1 -1,-2 -1,-1 -1,-2 -1,-3z"/>
   <polygon class="fil2" points="374,88 372,88 372,75 375,75 378,84 382,75 385,75 385,88 382,88 383,78 379,88 377,88 374,78 "/>
  </g>
  <path class="fil2" d="M86 95l7 -2 1 0 0 12c0,1 1,2 1,2l-7 0c0,0 1,-1 1,-2l0 -8 -3 0 0 -2z"/>
  <polygon id="1" class="fil2" points="109,100 109,103 100,103 100,100 "/>
  <path id="2" class="fil2" d="M122 100c1,0 1,0 2,0 0,0 1,0 1,0 1,1 1,1 1,2l0 2c0,1 0,2 -1,2 0,1 -1,1 -1,1 -1,0 -1,0 -2,0l-8 0c-1,0 -2,0 -2,0 0,0 -1,0 -1,-1 -1,0 -1,-1 -1,-2l0 -2c0,0 0,-1 0,-1 0,0 0,-1 1,-1 0,0 0,0 1,0 0,0 1,0 2,0 -1,0 -2,0 -2,0 -1,0 -1,-1 -1,-1 -1,0 -1,0 -1,-1 0,0 0,0 0,-1l0 -1c0,-1 0,-1 0,-2 0,0 1,0 1,-1 0,0 1,0 1,0 0,0 1,0 2,0l8 0c1,0 1,0 2,0 0,0 1,0 1,0 1,1 1,2 1,3l0 1c0,1 0,1 0,1 0,1 -1,1 -1,1 0,0 -1,1 -1,1 0,0 -1,0 -2,0zm-3 -5l-2 0c-1,0 -1,0 -1,0 0,1 0,1 0,1l0 1c0,1 0,1 0,1 0,0 0,1 1,1l2 0c0,0 0,0 0,0 1,-1 1,-1 1,-1 0,0 0,0 0,0 0,0 0,0 0,-1l0 -1c0,0 0,0 0,-1 0,0 -1,0 -1,0zm0 6l-2 0c0,0 -1,0 -1,0 0,0 0,0 0,0 0,0 0,1 0,1l0 2c0,0 0,0 0,0 0,0 0,0 0,0 0,1 0,1 1,1l2 0c0,0 1,0 1,-1 0,0 0,0 0,0l0 -2c0,0 0,-1 0,-1 0,0 -1,0 -1,0z"/>
  <path id="3" class="fil2" d="M132 93l9 0c1,0 2,0 3,1 0,0 1,1 1,1 0,0 0,1 0,2l0 6c0,1 0,1 0,2 0,0 -1,1 -1,1 -1,1 -2,1 -3,1l-9 0c-1,0 -2,0 -3,-1 0,0 0,-1 -1,-1 0,-1 0,-1 0,-2l0 -6c0,-1 0,-2 0,-2 1,0 1,-1 1,-1 1,-1 2,-1 3,-1zm2 4l0 6c0,1 0,1 0,1 1,1 1,1 2,1l2 0c0,0 1,0 1,-1 0,0 0,0 0,-1l0 -6c0,-1 0,-1 0,-1 0,-1 -1,-1 -1,-1l-2 0c-1,0 -1,0 -2,1 0,0 0,0 0,1z"/>
  <path id="4" class="fil2" d="M151 93l9 0c1,0 2,0 3,1 0,0 0,1 0,1 1,0 1,1 1,2l0 6c0,1 0,1 -1,2 0,0 0,1 0,1 -1,1 -2,1 -3,1l-9 0c-1,0 -2,0 -3,-1 0,0 -1,-1 -1,-1 0,-1 0,-1 0,-2l0 -6c0,-1 0,-2 0,-2 0,0 1,-1 1,-1 1,-1 2,-1 3,-1zm2 4l0 6c0,1 0,1 0,1 0,1 1,1 1,1l2 0c1,0 1,0 2,-1 0,0 0,0 0,-1l0 -6c0,-1 0,-1 0,-1 -1,-1 -1,-1 -2,-1l-2 0c0,0 -1,0 -1,1 0,0 0,0 0,1z"/>
  <polygon id="5" class="fil2" points="173,100 173,103 165,103 165,100 "/>
  <path id="6" class="fil2" d="M175 93l15 0 0 2c-2,2 -3,4 -5,6 -1,2 -2,4 -2,6l-7 0c1,-1 2,-3 3,-6 2,-2 3,-4 5,-6l-7 0c0,0 -1,0 -1,0 -1,0 -1,1 -2,1l1 -3z"/>
  <path id="7" class="fil2" d="M205 100l3 0 0 4 -3 0 0 1c0,1 1,2 1,2l-7 0c0,0 1,-1 1,-2l0 -1 -10 0 0 -3 9 -8 6 0 0 7zm-5 0l0 -5 -6 5 6 0z"/>
  <path id="8" class="fil2" d="M209 93l15 0 0 2c-2,2 -3,4 -5,6 -1,2 -2,4 -2,6l-7 0c1,-1 2,-3 3,-6 2,-2 3,-4 5,-6l-6 0c-1,0 -2,0 -2,0 -1,0 -1,1 -1,1l0 -3z"/>
  <polygon id="9" class="fil2" points="234,100 234,103 226,103 226,100 "/>
  <path id="10" class="fil2" d="M236 107l-1 -3c1,0 1,1 2,1 0,0 1,0 2,0l4 0c1,0 2,0 2,-1 0,0 0,0 0,-1l0 -2c0,1 0,1 -1,1l-5 0c-1,0 -2,0 -2,0 0,0 -1,0 -1,0 0,-1 0,-1 -1,-1 0,-1 0,-1 0,-2l0 -3c0,0 0,-1 0,-1 1,-1 1,-1 1,-1 1,-1 2,-1 3,-1l8 0 0 0c2,0 3,0 4,1 0,1 0,1 0,2l0 8 0 0c0,1 0,2 -1,3 -1,0 -1,0 -3,0l-11 0zm6 -7l2 0c1,0 1,0 1,0 0,0 0,-1 0,-1l0 -2c0,-1 0,-1 0,-2 0,0 0,0 -1,0l-2 0c0,0 -1,0 -1,0 0,1 0,1 0,2l0 2c0,0 0,0 0,1 0,0 1,0 1,0z"/>
  <path id="11" class="fil2" d="M257 93l10 0c1,0 2,0 2,1 1,0 1,1 1,1 0,0 0,1 0,2l0 6c0,1 0,1 0,2 0,0 0,1 -1,1 0,1 -1,1 -2,1l-10 0c-1,0 -2,0 -2,-1 -1,0 -1,-1 -1,-1 0,-1 0,-1 0,-2l0 -6c0,-1 0,-2 0,-2 0,0 0,-1 1,-1 0,-1 1,-1 2,-1zm2 4l0 6c0,1 1,1 1,1 0,1 0,1 1,1l2 0c1,0 1,0 1,-1 0,0 1,0 1,-1l0 -6c0,-1 -1,-1 -1,-1 0,-1 0,-1 -1,-1l-2 0c-1,0 -1,0 -1,1 0,0 -1,0 -1,1z"/>
  <path id="12" class="fil2" d="M274 95l7 -2 2 0 0 12c0,1 0,2 0,2l-7 0c0,0 1,-1 1,-2l0 -8 -3 0 0 -2z"/>
  <path id="13" class="fil2" d="M290 101l0 -2c1,0 2,0 2,0l4 0c0,0 1,0 1,0 0,-1 0,-1 0,-1l0 -2c0,0 0,0 0,-1 -1,0 -1,0 -1,0l-6 0c-1,0 -2,0 -3,1l1 -3 11 0c1,0 1,0 2,0 0,0 0,0 1,1 0,0 1,1 1,2l0 2c0,0 0,0 0,1 -1,0 -1,0 -1,0 0,0 -1,1 -1,1 0,0 -1,0 -2,0 0,0 1,0 1,0 0,0 1,0 1,0 0,0 1,0 1,0 0,1 1,1 1,2l0 2c0,1 -1,2 -1,2 0,1 -1,1 -1,1 -1,0 -1,0 -2,0l-11 0 -1 -3c1,0 1,1 2,1 0,0 1,0 2,0l4 0c1,0 1,0 2,0 0,0 0,-1 0,-1 0,0 0,0 0,0l0 -2c0,0 0,-1 0,-1 0,0 -1,0 -1,0l-4 0c-1,0 -1,0 -2,0z"/>
 </g>
</svg>
